<mxfile host="drawio-plugin" modified="2022-06-20T09:01:37.100Z" agent="5.0 (Windows NT 6.2; Win64; x64) AppleWebKit/537.36 (KHTML, like Gecko) Chrome/97.0.4692.45 Safari/537.36" etag="mX-0rU6cCWvQmeQLPij9" version="15.5.4" type="embed"><diagram id="R2lEEEUBdFMjLlhIrx00" name="Page-1"><mxGraphModel dx="630" dy="400" grid="1" gridSize="10" guides="1" tooltips="1" connect="1" arrows="1" fold="1" page="1" pageScale="1" pageWidth="1200" pageHeight="1920" math="0" shadow="0" extFonts="Permanent Marker^https://fonts.googleapis.com/css?family=Permanent+Marker"><root><mxCell id="0"/><mxCell id="1" parent="0"/><mxCell id="CqQhMdr8A4lf7jFSZ2HG-1" value="&lt;font style=&quot;font-size: 36px&quot;&gt;1NF &amp;amp; 2NF&lt;/font&gt;" style="rounded=0;whiteSpace=wrap;html=1;" parent="1" vertex="1"><mxGeometry x="40" y="40" width="370" height="60" as="geometry"/></mxCell><mxCell id="CqQhMdr8A4lf7jFSZ2HG-2" value="&lt;font size=&quot;1&quot;&gt;&lt;b&gt;&lt;u style=&quot;font-size: 16px&quot;&gt;PROJ_NUM&lt;/u&gt;&lt;/b&gt;&lt;/font&gt;" style="rounded=0;whiteSpace=wrap;html=1;fontSize=36;fillColor=#ffe6cc;strokeColor=#d79b00;" parent="1" vertex="1"><mxGeometry x="40" y="160" width="140" height="40" as="geometry"/></mxCell><mxCell id="q6XcGo8AvM6jW1QelvKf-24" style="edgeStyle=orthogonalEdgeStyle;rounded=0;sketch=0;orthogonalLoop=1;jettySize=auto;html=1;exitX=0.5;exitY=0;exitDx=0;exitDy=0;entryX=0.5;entryY=0;entryDx=0;entryDy=0;fontSize=16;startArrow=classic;startFill=1;endArrow=classic;endFill=1;" parent="1" source="CqQhMdr8A4lf7jFSZ2HG-4" target="q6XcGo8AvM6jW1QelvKf-1" edge="1"><mxGeometry relative="1" as="geometry"/></mxCell><mxCell id="CqQhMdr8A4lf7jFSZ2HG-4" value="&lt;font size=&quot;3&quot;&gt;TOTAL_OWED&lt;/font&gt;" style="rounded=0;whiteSpace=wrap;html=1;fontSize=36;fillColor=#dae8fc;strokeColor=#6c8ebf;" parent="1" vertex="1"><mxGeometry x="1020" y="160" width="140" height="40" as="geometry"/></mxCell><mxCell id="q6XcGo8AvM6jW1QelvKf-23" style="edgeStyle=orthogonalEdgeStyle;rounded=0;sketch=0;orthogonalLoop=1;jettySize=auto;html=1;exitX=0.5;exitY=0;exitDx=0;exitDy=0;entryX=0.5;entryY=0;entryDx=0;entryDy=0;fontSize=16;startArrow=classic;startFill=1;endArrow=classic;endFill=1;" parent="1" source="CqQhMdr8A4lf7jFSZ2HG-5" target="CqQhMdr8A4lf7jFSZ2HG-4" edge="1"><mxGeometry relative="1" as="geometry"/></mxCell><mxCell id="q6XcGo8AvM6jW1QelvKf-44" style="edgeStyle=orthogonalEdgeStyle;rounded=0;sketch=0;orthogonalLoop=1;jettySize=auto;html=1;exitX=0.5;exitY=1;exitDx=0;exitDy=0;entryX=0.429;entryY=0.975;entryDx=0;entryDy=0;entryPerimeter=0;fontSize=16;startArrow=none;startFill=0;endArrow=classic;endFill=1;" parent="1" source="CqQhMdr8A4lf7jFSZ2HG-5" target="CqQhMdr8A4lf7jFSZ2HG-4" edge="1"><mxGeometry relative="1" as="geometry"/></mxCell><mxCell id="CqQhMdr8A4lf7jFSZ2HG-5" value="&lt;font size=&quot;3&quot;&gt;TOTAL_PAID&lt;/font&gt;" style="rounded=0;whiteSpace=wrap;html=1;fontSize=36;fillColor=#dae8fc;strokeColor=#6c8ebf;" parent="1" vertex="1"><mxGeometry x="880" y="160" width="140" height="40" as="geometry"/></mxCell><mxCell id="q6XcGo8AvM6jW1QelvKf-22" style="edgeStyle=orthogonalEdgeStyle;rounded=0;sketch=0;orthogonalLoop=1;jettySize=auto;html=1;exitX=0.5;exitY=0;exitDx=0;exitDy=0;entryX=0.5;entryY=0;entryDx=0;entryDy=0;fontSize=16;startArrow=classic;startFill=1;endArrow=classic;endFill=1;" parent="1" source="CqQhMdr8A4lf7jFSZ2HG-6" target="CqQhMdr8A4lf7jFSZ2HG-5" edge="1"><mxGeometry relative="1" as="geometry"/></mxCell><mxCell id="q6XcGo8AvM6jW1QelvKf-43" style="edgeStyle=orthogonalEdgeStyle;rounded=0;sketch=0;orthogonalLoop=1;jettySize=auto;html=1;exitX=0.5;exitY=1;exitDx=0;exitDy=0;entryX=0.5;entryY=1;entryDx=0;entryDy=0;fontSize=16;startArrow=none;startFill=0;endArrow=none;endFill=0;" parent="1" source="CqQhMdr8A4lf7jFSZ2HG-6" target="CqQhMdr8A4lf7jFSZ2HG-5" edge="1"><mxGeometry relative="1" as="geometry"/></mxCell><mxCell id="CqQhMdr8A4lf7jFSZ2HG-6" value="&lt;font size=&quot;3&quot;&gt;TOTAL_FEE&lt;/font&gt;" style="rounded=0;whiteSpace=wrap;html=1;fontSize=36;fillColor=#dae8fc;strokeColor=#6c8ebf;" parent="1" vertex="1"><mxGeometry x="740" y="160" width="140" height="40" as="geometry"/></mxCell><mxCell id="q6XcGo8AvM6jW1QelvKf-21" style="edgeStyle=orthogonalEdgeStyle;rounded=0;sketch=0;orthogonalLoop=1;jettySize=auto;html=1;exitX=0.5;exitY=0;exitDx=0;exitDy=0;entryX=0.5;entryY=0;entryDx=0;entryDy=0;fontSize=16;startArrow=classic;startFill=1;endArrow=classic;endFill=1;" parent="1" source="CqQhMdr8A4lf7jFSZ2HG-7" target="CqQhMdr8A4lf7jFSZ2HG-6" edge="1"><mxGeometry relative="1" as="geometry"/></mxCell><mxCell id="CqQhMdr8A4lf7jFSZ2HG-7" value="&lt;font size=&quot;3&quot;&gt;ERF_NUM&lt;/font&gt;" style="rounded=0;whiteSpace=wrap;html=1;fontSize=36;fillColor=#dae8fc;strokeColor=#6c8ebf;" parent="1" vertex="1"><mxGeometry x="600" y="160" width="140" height="40" as="geometry"/></mxCell><mxCell id="q6XcGo8AvM6jW1QelvKf-20" style="edgeStyle=orthogonalEdgeStyle;rounded=0;sketch=0;orthogonalLoop=1;jettySize=auto;html=1;exitX=0.5;exitY=0;exitDx=0;exitDy=0;entryX=0.5;entryY=0;entryDx=0;entryDy=0;fontSize=16;startArrow=classic;startFill=1;endArrow=classic;endFill=1;" parent="1" source="CqQhMdr8A4lf7jFSZ2HG-8" target="CqQhMdr8A4lf7jFSZ2HG-7" edge="1"><mxGeometry relative="1" as="geometry"/></mxCell><mxCell id="q6XcGo8AvM6jW1QelvKf-42" style="edgeStyle=orthogonalEdgeStyle;rounded=0;sketch=0;orthogonalLoop=1;jettySize=auto;html=1;exitX=0.5;exitY=1;exitDx=0;exitDy=0;entryX=0.5;entryY=1;entryDx=0;entryDy=0;fontSize=16;startArrow=classic;startFill=1;endArrow=classic;endFill=1;" parent="1" source="CqQhMdr8A4lf7jFSZ2HG-8" target="CqQhMdr8A4lf7jFSZ2HG-7" edge="1"><mxGeometry relative="1" as="geometry"/></mxCell><mxCell id="CqQhMdr8A4lf7jFSZ2HG-8" value="&lt;font size=&quot;3&quot;&gt;BUILD_ADDRESS&lt;/font&gt;" style="rounded=0;whiteSpace=wrap;html=1;fontSize=36;fillColor=#dae8fc;strokeColor=#6c8ebf;" parent="1" vertex="1"><mxGeometry x="460" y="160" width="140" height="40" as="geometry"/></mxCell><mxCell id="q6XcGo8AvM6jW1QelvKf-19" style="edgeStyle=orthogonalEdgeStyle;rounded=0;sketch=0;orthogonalLoop=1;jettySize=auto;html=1;exitX=0.5;exitY=0;exitDx=0;exitDy=0;entryX=0.5;entryY=0;entryDx=0;entryDy=0;fontSize=16;endArrow=classic;endFill=1;startArrow=classic;startFill=1;" parent="1" source="CqQhMdr8A4lf7jFSZ2HG-9" target="CqQhMdr8A4lf7jFSZ2HG-8" edge="1"><mxGeometry relative="1" as="geometry"/></mxCell><mxCell id="q6XcGo8AvM6jW1QelvKf-41" style="edgeStyle=orthogonalEdgeStyle;rounded=0;sketch=0;orthogonalLoop=1;jettySize=auto;html=1;exitX=0.5;exitY=1;exitDx=0;exitDy=0;entryX=0.5;entryY=1;entryDx=0;entryDy=0;fontSize=16;startArrow=none;startFill=0;endArrow=classic;endFill=1;" parent="1" source="CqQhMdr8A4lf7jFSZ2HG-9" target="CqQhMdr8A4lf7jFSZ2HG-8" edge="1"><mxGeometry relative="1" as="geometry"/></mxCell><mxCell id="CqQhMdr8A4lf7jFSZ2HG-9" value="&lt;font size=&quot;3&quot;&gt;BUILD_TYPE&lt;/font&gt;" style="rounded=0;whiteSpace=wrap;html=1;fontSize=36;fillColor=#dae8fc;strokeColor=#6c8ebf;" parent="1" vertex="1"><mxGeometry x="320" y="160" width="140" height="40" as="geometry"/></mxCell><mxCell id="CqQhMdr8A4lf7jFSZ2HG-28" value="&lt;font style=&quot;font-size: 36px&quot;&gt;3NF&lt;/font&gt;" style="rounded=0;whiteSpace=wrap;html=1;" parent="1" vertex="1"><mxGeometry x="40" y="280" width="370" height="60" as="geometry"/></mxCell><mxCell id="CqQhMdr8A4lf7jFSZ2HG-29" value="&lt;span style=&quot;font-size: 18px&quot;&gt;PROJECT&lt;/span&gt;" style="rounded=0;whiteSpace=wrap;html=1;fontSize=36;" parent="1" vertex="1"><mxGeometry x="40" y="400" width="140" height="40" as="geometry"/></mxCell><mxCell id="CqQhMdr8A4lf7jFSZ2HG-32" style="edgeStyle=orthogonalEdgeStyle;rounded=0;orthogonalLoop=1;jettySize=auto;html=1;exitX=0.5;exitY=0;exitDx=0;exitDy=0;entryX=0.5;entryY=0;entryDx=0;entryDy=0;fontSize=18;startArrow=none;startFill=0;endArrow=classic;endFill=1;strokeColor=#000000;" parent="1" source="CqQhMdr8A4lf7jFSZ2HG-30" target="CqQhMdr8A4lf7jFSZ2HG-31" edge="1"><mxGeometry relative="1" as="geometry"/></mxCell><mxCell id="CqQhMdr8A4lf7jFSZ2HG-30" value="&lt;font size=&quot;1&quot;&gt;&lt;b&gt;&lt;u style=&quot;font-size: 16px&quot;&gt;PROJ_NUM&lt;/u&gt;&lt;/b&gt;&lt;/font&gt;" style="rounded=0;whiteSpace=wrap;html=1;fontSize=36;fillColor=#ffe6cc;strokeColor=#d79b00;" parent="1" vertex="1"><mxGeometry x="210" y="400" width="140" height="40" as="geometry"/></mxCell><mxCell id="q6XcGo8AvM6jW1QelvKf-63" style="edgeStyle=orthogonalEdgeStyle;rounded=0;sketch=0;orthogonalLoop=1;jettySize=auto;html=1;exitX=0.5;exitY=0;exitDx=0;exitDy=0;entryX=0.5;entryY=0;entryDx=0;entryDy=0;fontSize=16;startArrow=none;startFill=0;endArrow=classic;endFill=1;" parent="1" source="CqQhMdr8A4lf7jFSZ2HG-31" target="q6XcGo8AvM6jW1QelvKf-61" edge="1"><mxGeometry relative="1" as="geometry"/></mxCell><mxCell id="CqQhMdr8A4lf7jFSZ2HG-31" value="&lt;font size=&quot;3&quot;&gt;PROJ_NAME&lt;/font&gt;" style="rounded=0;whiteSpace=wrap;html=1;fontSize=36;fillColor=#dae8fc;strokeColor=#6c8ebf;" parent="1" vertex="1"><mxGeometry x="350" y="400" width="140" height="40" as="geometry"/></mxCell><mxCell id="CqQhMdr8A4lf7jFSZ2HG-33" value="&lt;span style=&quot;font-size: 18px&quot;&gt;BUILDING&lt;/span&gt;" style="rounded=0;whiteSpace=wrap;html=1;fontSize=36;" parent="1" vertex="1"><mxGeometry x="40" y="480" width="140" height="40" as="geometry"/></mxCell><mxCell id="CqQhMdr8A4lf7jFSZ2HG-40" style="edgeStyle=orthogonalEdgeStyle;rounded=0;orthogonalLoop=1;jettySize=auto;html=1;exitX=0.5;exitY=0;exitDx=0;exitDy=0;entryX=0.5;entryY=0;entryDx=0;entryDy=0;fontSize=18;startArrow=none;startFill=0;endArrow=classic;endFill=1;strokeColor=#000000;" parent="1" source="CqQhMdr8A4lf7jFSZ2HG-34" target="CqQhMdr8A4lf7jFSZ2HG-35" edge="1"><mxGeometry relative="1" as="geometry"/></mxCell><mxCell id="CqQhMdr8A4lf7jFSZ2HG-34" value="&lt;font size=&quot;3&quot;&gt;&lt;b&gt;&lt;u&gt;BUILD_TYPE&lt;/u&gt;&lt;/b&gt;&lt;/font&gt;" style="rounded=0;whiteSpace=wrap;html=1;fontSize=36;fillColor=#ffe6cc;strokeColor=#d79b00;" parent="1" vertex="1"><mxGeometry x="210" y="480" width="140" height="40" as="geometry"/></mxCell><mxCell id="CqQhMdr8A4lf7jFSZ2HG-41" style="edgeStyle=orthogonalEdgeStyle;rounded=0;orthogonalLoop=1;jettySize=auto;html=1;exitX=0.5;exitY=0;exitDx=0;exitDy=0;entryX=0.5;entryY=0;entryDx=0;entryDy=0;fontSize=18;startArrow=classic;startFill=1;endArrow=classic;endFill=1;strokeColor=#000000;" parent="1" source="CqQhMdr8A4lf7jFSZ2HG-35" target="CqQhMdr8A4lf7jFSZ2HG-36" edge="1"><mxGeometry relative="1" as="geometry"/></mxCell><mxCell id="CqQhMdr8A4lf7jFSZ2HG-35" value="&lt;span style=&quot;font-size: medium&quot;&gt;BUILD_ADDRESS&lt;/span&gt;" style="rounded=0;whiteSpace=wrap;html=1;fontSize=36;fillColor=#dae8fc;strokeColor=#6c8ebf;" parent="1" vertex="1"><mxGeometry x="350" y="480" width="140" height="40" as="geometry"/></mxCell><mxCell id="CqQhMdr8A4lf7jFSZ2HG-36" value="&lt;span style=&quot;font-size: medium&quot;&gt;ERF_NUM&lt;/span&gt;" style="rounded=0;whiteSpace=wrap;html=1;fontSize=36;fillColor=#dae8fc;strokeColor=#6c8ebf;" parent="1" vertex="1"><mxGeometry x="490" y="480" width="140" height="40" as="geometry"/></mxCell><mxCell id="q6XcGo8AvM6jW1QelvKf-25" style="edgeStyle=orthogonalEdgeStyle;rounded=0;sketch=0;orthogonalLoop=1;jettySize=auto;html=1;exitX=0.5;exitY=0;exitDx=0;exitDy=0;entryX=0.5;entryY=0;entryDx=0;entryDy=0;fontSize=16;startArrow=classic;startFill=1;endArrow=classic;endFill=1;" parent="1" source="q6XcGo8AvM6jW1QelvKf-1" target="q6XcGo8AvM6jW1QelvKf-2" edge="1"><mxGeometry relative="1" as="geometry"/></mxCell><mxCell id="q6XcGo8AvM6jW1QelvKf-45" style="edgeStyle=orthogonalEdgeStyle;rounded=0;sketch=0;orthogonalLoop=1;jettySize=auto;html=1;exitX=0.5;exitY=1;exitDx=0;exitDy=0;entryX=0.5;entryY=1;entryDx=0;entryDy=0;fontSize=16;startArrow=none;startFill=0;endArrow=none;endFill=0;" parent="1" source="q6XcGo8AvM6jW1QelvKf-1" target="q6XcGo8AvM6jW1QelvKf-2" edge="1"><mxGeometry relative="1" as="geometry"/></mxCell><mxCell id="q6XcGo8AvM6jW1QelvKf-1" value="&lt;font size=&quot;3&quot;&gt;DEADLINE&lt;/font&gt;" style="rounded=0;whiteSpace=wrap;html=1;fontSize=36;fillColor=#dae8fc;strokeColor=#6c8ebf;" parent="1" vertex="1"><mxGeometry x="1160" y="160" width="140" height="40" as="geometry"/></mxCell><mxCell id="q6XcGo8AvM6jW1QelvKf-26" style="edgeStyle=orthogonalEdgeStyle;rounded=0;sketch=0;orthogonalLoop=1;jettySize=auto;html=1;exitX=0.5;exitY=0;exitDx=0;exitDy=0;entryX=0.5;entryY=0;entryDx=0;entryDy=0;fontSize=16;startArrow=classic;startFill=1;endArrow=classic;endFill=1;" parent="1" source="q6XcGo8AvM6jW1QelvKf-2" target="q6XcGo8AvM6jW1QelvKf-3" edge="1"><mxGeometry relative="1" as="geometry"/></mxCell><mxCell id="q6XcGo8AvM6jW1QelvKf-46" style="edgeStyle=orthogonalEdgeStyle;rounded=0;sketch=0;orthogonalLoop=1;jettySize=auto;html=1;exitX=0.5;exitY=1;exitDx=0;exitDy=0;entryX=0.5;entryY=1;entryDx=0;entryDy=0;fontSize=16;startArrow=none;startFill=0;endArrow=classic;endFill=1;" parent="1" source="q6XcGo8AvM6jW1QelvKf-2" target="q6XcGo8AvM6jW1QelvKf-3" edge="1"><mxGeometry relative="1" as="geometry"/></mxCell><mxCell id="q6XcGo8AvM6jW1QelvKf-2" value="&lt;font size=&quot;3&quot;&gt;COMP_DATE&lt;/font&gt;" style="rounded=0;whiteSpace=wrap;html=1;fontSize=36;fillColor=#dae8fc;strokeColor=#6c8ebf;" parent="1" vertex="1"><mxGeometry x="1300" y="160" width="140" height="40" as="geometry"/></mxCell><mxCell id="q6XcGo8AvM6jW1QelvKf-27" style="edgeStyle=orthogonalEdgeStyle;rounded=0;sketch=0;orthogonalLoop=1;jettySize=auto;html=1;exitX=0.5;exitY=0;exitDx=0;exitDy=0;entryX=0.5;entryY=0;entryDx=0;entryDy=0;fontSize=16;startArrow=classic;startFill=1;endArrow=classic;endFill=1;" parent="1" source="q6XcGo8AvM6jW1QelvKf-3" target="q6XcGo8AvM6jW1QelvKf-4" edge="1"><mxGeometry relative="1" as="geometry"/></mxCell><mxCell id="q6XcGo8AvM6jW1QelvKf-3" value="&lt;font size=&quot;3&quot;&gt;COMPLETE&lt;/font&gt;" style="rounded=0;whiteSpace=wrap;html=1;fontSize=36;fillColor=#dae8fc;strokeColor=#6c8ebf;" parent="1" vertex="1"><mxGeometry x="1440" y="160" width="140" height="40" as="geometry"/></mxCell><mxCell id="q6XcGo8AvM6jW1QelvKf-28" style="edgeStyle=orthogonalEdgeStyle;rounded=0;sketch=0;orthogonalLoop=1;jettySize=auto;html=1;exitX=0.5;exitY=0;exitDx=0;exitDy=0;entryX=0.5;entryY=0;entryDx=0;entryDy=0;fontSize=16;startArrow=classic;startFill=1;endArrow=classic;endFill=1;" parent="1" source="q6XcGo8AvM6jW1QelvKf-4" target="q6XcGo8AvM6jW1QelvKf-5" edge="1"><mxGeometry relative="1" as="geometry"/></mxCell><mxCell id="q6XcGo8AvM6jW1QelvKf-4" value="&lt;font size=&quot;3&quot;&gt;ARCH_NAME&lt;/font&gt;" style="rounded=0;whiteSpace=wrap;html=1;fontSize=36;fillColor=#dae8fc;strokeColor=#6c8ebf;" parent="1" vertex="1"><mxGeometry x="1580" y="160" width="140" height="40" as="geometry"/></mxCell><mxCell id="q6XcGo8AvM6jW1QelvKf-29" style="edgeStyle=orthogonalEdgeStyle;rounded=0;sketch=0;orthogonalLoop=1;jettySize=auto;html=1;exitX=0.5;exitY=0;exitDx=0;exitDy=0;entryX=0.5;entryY=0;entryDx=0;entryDy=0;fontSize=16;startArrow=classic;startFill=1;endArrow=classic;endFill=1;" parent="1" source="q6XcGo8AvM6jW1QelvKf-5" target="q6XcGo8AvM6jW1QelvKf-6" edge="1"><mxGeometry relative="1" as="geometry"/></mxCell><mxCell id="q6XcGo8AvM6jW1QelvKf-50" style="edgeStyle=orthogonalEdgeStyle;rounded=0;sketch=0;orthogonalLoop=1;jettySize=auto;html=1;exitX=0.5;exitY=1;exitDx=0;exitDy=0;entryX=0.5;entryY=1;entryDx=0;entryDy=0;fontSize=16;startArrow=classic;startFill=1;endArrow=classic;endFill=1;" parent="1" source="q6XcGo8AvM6jW1QelvKf-5" target="q6XcGo8AvM6jW1QelvKf-4" edge="1"><mxGeometry relative="1" as="geometry"/></mxCell><mxCell id="q6XcGo8AvM6jW1QelvKf-51" style="edgeStyle=orthogonalEdgeStyle;rounded=0;sketch=0;orthogonalLoop=1;jettySize=auto;html=1;exitX=0.5;exitY=1;exitDx=0;exitDy=0;entryX=0.5;entryY=1;entryDx=0;entryDy=0;fontSize=16;startArrow=classic;startFill=1;endArrow=classic;endFill=1;" parent="1" source="q6XcGo8AvM6jW1QelvKf-5" target="q6XcGo8AvM6jW1QelvKf-6" edge="1"><mxGeometry relative="1" as="geometry"/></mxCell><mxCell id="q6XcGo8AvM6jW1QelvKf-5" value="&lt;font size=&quot;3&quot;&gt;ARCH_TELE&lt;/font&gt;" style="rounded=0;whiteSpace=wrap;html=1;fontSize=36;fillColor=#dae8fc;strokeColor=#6c8ebf;" parent="1" vertex="1"><mxGeometry x="1720" y="160" width="140" height="40" as="geometry"/></mxCell><mxCell id="q6XcGo8AvM6jW1QelvKf-30" style="edgeStyle=orthogonalEdgeStyle;rounded=0;sketch=0;orthogonalLoop=1;jettySize=auto;html=1;exitX=0.5;exitY=0;exitDx=0;exitDy=0;entryX=0.5;entryY=0;entryDx=0;entryDy=0;fontSize=16;startArrow=classic;startFill=1;endArrow=classic;endFill=1;" parent="1" source="q6XcGo8AvM6jW1QelvKf-6" target="q6XcGo8AvM6jW1QelvKf-7" edge="1"><mxGeometry relative="1" as="geometry"/></mxCell><mxCell id="q6XcGo8AvM6jW1QelvKf-52" style="edgeStyle=orthogonalEdgeStyle;rounded=0;sketch=0;orthogonalLoop=1;jettySize=auto;html=1;exitX=0.5;exitY=1;exitDx=0;exitDy=0;entryX=0.5;entryY=1;entryDx=0;entryDy=0;fontSize=16;startArrow=classic;startFill=1;endArrow=classic;endFill=1;" parent="1" source="q6XcGo8AvM6jW1QelvKf-6" target="q6XcGo8AvM6jW1QelvKf-7" edge="1"><mxGeometry relative="1" as="geometry"/></mxCell><mxCell id="q6XcGo8AvM6jW1QelvKf-6" value="&lt;font size=&quot;3&quot;&gt;ARCH_EMAIL&lt;/font&gt;" style="rounded=0;whiteSpace=wrap;html=1;fontSize=36;fillColor=#dae8fc;strokeColor=#6c8ebf;" parent="1" vertex="1"><mxGeometry x="1860" y="160" width="140" height="40" as="geometry"/></mxCell><mxCell id="q6XcGo8AvM6jW1QelvKf-31" style="edgeStyle=orthogonalEdgeStyle;rounded=0;sketch=0;orthogonalLoop=1;jettySize=auto;html=1;exitX=0.5;exitY=0;exitDx=0;exitDy=0;entryX=0.5;entryY=0;entryDx=0;entryDy=0;fontSize=16;startArrow=classic;startFill=1;endArrow=classic;endFill=1;" parent="1" source="q6XcGo8AvM6jW1QelvKf-7" target="q6XcGo8AvM6jW1QelvKf-8" edge="1"><mxGeometry relative="1" as="geometry"/></mxCell><mxCell id="q6XcGo8AvM6jW1QelvKf-7" value="&lt;font size=&quot;3&quot;&gt;ARCH_ADDRESS&lt;/font&gt;" style="rounded=0;whiteSpace=wrap;html=1;fontSize=36;fillColor=#dae8fc;strokeColor=#6c8ebf;" parent="1" vertex="1"><mxGeometry x="2000" y="160" width="140" height="40" as="geometry"/></mxCell><mxCell id="q6XcGo8AvM6jW1QelvKf-32" style="edgeStyle=orthogonalEdgeStyle;rounded=0;sketch=0;orthogonalLoop=1;jettySize=auto;html=1;exitX=0.5;exitY=0;exitDx=0;exitDy=0;entryX=0.5;entryY=0;entryDx=0;entryDy=0;fontSize=16;startArrow=classic;startFill=1;endArrow=classic;endFill=1;" parent="1" source="q6XcGo8AvM6jW1QelvKf-8" target="q6XcGo8AvM6jW1QelvKf-9" edge="1"><mxGeometry relative="1" as="geometry"/></mxCell><mxCell id="q6XcGo8AvM6jW1QelvKf-54" style="edgeStyle=orthogonalEdgeStyle;rounded=0;sketch=0;orthogonalLoop=1;jettySize=auto;html=1;exitX=0.5;exitY=1;exitDx=0;exitDy=0;entryX=0.5;entryY=1;entryDx=0;entryDy=0;fontSize=16;startArrow=classic;startFill=1;endArrow=classic;endFill=1;" parent="1" source="q6XcGo8AvM6jW1QelvKf-8" target="q6XcGo8AvM6jW1QelvKf-9" edge="1"><mxGeometry relative="1" as="geometry"/></mxCell><mxCell id="q6XcGo8AvM6jW1QelvKf-8" value="&lt;font size=&quot;3&quot;&gt;CONT_NAME&lt;/font&gt;" style="rounded=0;whiteSpace=wrap;html=1;fontSize=36;fillColor=#dae8fc;strokeColor=#6c8ebf;" parent="1" vertex="1"><mxGeometry x="2140" y="160" width="140" height="40" as="geometry"/></mxCell><mxCell id="q6XcGo8AvM6jW1QelvKf-33" style="edgeStyle=orthogonalEdgeStyle;rounded=0;sketch=0;orthogonalLoop=1;jettySize=auto;html=1;exitX=0.5;exitY=0;exitDx=0;exitDy=0;entryX=0.5;entryY=0;entryDx=0;entryDy=0;fontSize=16;startArrow=classic;startFill=1;endArrow=classic;endFill=1;" parent="1" source="q6XcGo8AvM6jW1QelvKf-9" target="q6XcGo8AvM6jW1QelvKf-10" edge="1"><mxGeometry relative="1" as="geometry"/></mxCell><mxCell id="q6XcGo8AvM6jW1QelvKf-55" style="edgeStyle=orthogonalEdgeStyle;rounded=0;sketch=0;orthogonalLoop=1;jettySize=auto;html=1;exitX=0.5;exitY=1;exitDx=0;exitDy=0;entryX=0.5;entryY=1;entryDx=0;entryDy=0;fontSize=16;startArrow=classic;startFill=1;endArrow=classic;endFill=1;" parent="1" source="q6XcGo8AvM6jW1QelvKf-9" target="q6XcGo8AvM6jW1QelvKf-10" edge="1"><mxGeometry relative="1" as="geometry"/></mxCell><mxCell id="q6XcGo8AvM6jW1QelvKf-9" value="&lt;font size=&quot;3&quot;&gt;CONT_TELE&lt;/font&gt;" style="rounded=0;whiteSpace=wrap;html=1;fontSize=36;fillColor=#dae8fc;strokeColor=#6c8ebf;" parent="1" vertex="1"><mxGeometry x="2280" y="160" width="140" height="40" as="geometry"/></mxCell><mxCell id="q6XcGo8AvM6jW1QelvKf-34" style="edgeStyle=orthogonalEdgeStyle;rounded=0;sketch=0;orthogonalLoop=1;jettySize=auto;html=1;exitX=0.5;exitY=0;exitDx=0;exitDy=0;entryX=0.5;entryY=0;entryDx=0;entryDy=0;fontSize=16;startArrow=classic;startFill=1;endArrow=classic;endFill=1;" parent="1" source="q6XcGo8AvM6jW1QelvKf-10" target="q6XcGo8AvM6jW1QelvKf-11" edge="1"><mxGeometry relative="1" as="geometry"/></mxCell><mxCell id="q6XcGo8AvM6jW1QelvKf-56" style="edgeStyle=orthogonalEdgeStyle;rounded=0;sketch=0;orthogonalLoop=1;jettySize=auto;html=1;exitX=0.5;exitY=1;exitDx=0;exitDy=0;entryX=0.5;entryY=1;entryDx=0;entryDy=0;fontSize=16;startArrow=classic;startFill=1;endArrow=classic;endFill=1;" parent="1" source="q6XcGo8AvM6jW1QelvKf-10" target="q6XcGo8AvM6jW1QelvKf-11" edge="1"><mxGeometry relative="1" as="geometry"/></mxCell><mxCell id="q6XcGo8AvM6jW1QelvKf-10" value="&lt;font size=&quot;3&quot;&gt;CONT_EMAIL&lt;/font&gt;" style="rounded=0;whiteSpace=wrap;html=1;fontSize=36;fillColor=#dae8fc;strokeColor=#6c8ebf;" parent="1" vertex="1"><mxGeometry x="2420" y="160" width="140" height="40" as="geometry"/></mxCell><mxCell id="q6XcGo8AvM6jW1QelvKf-35" style="edgeStyle=orthogonalEdgeStyle;rounded=0;sketch=0;orthogonalLoop=1;jettySize=auto;html=1;exitX=0.5;exitY=0;exitDx=0;exitDy=0;entryX=0.5;entryY=0;entryDx=0;entryDy=0;fontSize=16;startArrow=classic;startFill=1;endArrow=classic;endFill=1;" parent="1" source="q6XcGo8AvM6jW1QelvKf-11" target="q6XcGo8AvM6jW1QelvKf-12" edge="1"><mxGeometry relative="1" as="geometry"/></mxCell><mxCell id="q6XcGo8AvM6jW1QelvKf-11" value="&lt;font size=&quot;3&quot;&gt;CONT_ADDRESS&lt;/font&gt;" style="rounded=0;whiteSpace=wrap;html=1;fontSize=36;fillColor=#dae8fc;strokeColor=#6c8ebf;" parent="1" vertex="1"><mxGeometry x="2560" y="160" width="140" height="40" as="geometry"/></mxCell><mxCell id="q6XcGo8AvM6jW1QelvKf-36" style="edgeStyle=orthogonalEdgeStyle;rounded=0;sketch=0;orthogonalLoop=1;jettySize=auto;html=1;exitX=0.5;exitY=0;exitDx=0;exitDy=0;entryX=0.5;entryY=0;entryDx=0;entryDy=0;fontSize=16;startArrow=classic;startFill=1;endArrow=classic;endFill=1;" parent="1" source="q6XcGo8AvM6jW1QelvKf-12" target="q6XcGo8AvM6jW1QelvKf-13" edge="1"><mxGeometry relative="1" as="geometry"/></mxCell><mxCell id="q6XcGo8AvM6jW1QelvKf-58" style="edgeStyle=orthogonalEdgeStyle;rounded=0;sketch=0;orthogonalLoop=1;jettySize=auto;html=1;exitX=0.5;exitY=1;exitDx=0;exitDy=0;entryX=0.5;entryY=1;entryDx=0;entryDy=0;fontSize=16;startArrow=classic;startFill=1;endArrow=classic;endFill=1;" parent="1" source="q6XcGo8AvM6jW1QelvKf-12" target="q6XcGo8AvM6jW1QelvKf-13" edge="1"><mxGeometry relative="1" as="geometry"/></mxCell><mxCell id="q6XcGo8AvM6jW1QelvKf-12" value="&lt;font size=&quot;3&quot;&gt;CUST_NAME&lt;/font&gt;" style="rounded=0;whiteSpace=wrap;html=1;fontSize=36;fillColor=#dae8fc;strokeColor=#6c8ebf;" parent="1" vertex="1"><mxGeometry x="2700" y="160" width="140" height="40" as="geometry"/></mxCell><mxCell id="q6XcGo8AvM6jW1QelvKf-37" style="edgeStyle=orthogonalEdgeStyle;rounded=0;sketch=0;orthogonalLoop=1;jettySize=auto;html=1;exitX=0.5;exitY=0;exitDx=0;exitDy=0;entryX=0.5;entryY=0;entryDx=0;entryDy=0;fontSize=16;startArrow=classic;startFill=1;endArrow=classic;endFill=1;" parent="1" source="q6XcGo8AvM6jW1QelvKf-13" target="q6XcGo8AvM6jW1QelvKf-14" edge="1"><mxGeometry relative="1" as="geometry"/></mxCell><mxCell id="q6XcGo8AvM6jW1QelvKf-59" style="edgeStyle=orthogonalEdgeStyle;rounded=0;sketch=0;orthogonalLoop=1;jettySize=auto;html=1;exitX=0.5;exitY=1;exitDx=0;exitDy=0;entryX=0.5;entryY=1;entryDx=0;entryDy=0;fontSize=16;startArrow=classic;startFill=1;endArrow=classic;endFill=1;" parent="1" source="q6XcGo8AvM6jW1QelvKf-13" target="q6XcGo8AvM6jW1QelvKf-14" edge="1"><mxGeometry relative="1" as="geometry"/></mxCell><mxCell id="q6XcGo8AvM6jW1QelvKf-13" value="&lt;font size=&quot;3&quot;&gt;CUST_TELE&lt;/font&gt;" style="rounded=0;whiteSpace=wrap;html=1;fontSize=36;fillColor=#dae8fc;strokeColor=#6c8ebf;" parent="1" vertex="1"><mxGeometry x="2840" y="160" width="140" height="40" as="geometry"/></mxCell><mxCell id="q6XcGo8AvM6jW1QelvKf-38" style="edgeStyle=orthogonalEdgeStyle;rounded=0;sketch=0;orthogonalLoop=1;jettySize=auto;html=1;exitX=0.5;exitY=0;exitDx=0;exitDy=0;entryX=0.5;entryY=0;entryDx=0;entryDy=0;fontSize=16;startArrow=classic;startFill=1;endArrow=classic;endFill=1;" parent="1" source="q6XcGo8AvM6jW1QelvKf-14" target="q6XcGo8AvM6jW1QelvKf-15" edge="1"><mxGeometry relative="1" as="geometry"/></mxCell><mxCell id="q6XcGo8AvM6jW1QelvKf-60" style="edgeStyle=orthogonalEdgeStyle;rounded=0;sketch=0;orthogonalLoop=1;jettySize=auto;html=1;exitX=0.5;exitY=1;exitDx=0;exitDy=0;entryX=0.5;entryY=1;entryDx=0;entryDy=0;fontSize=16;startArrow=classic;startFill=1;endArrow=classic;endFill=1;" parent="1" source="q6XcGo8AvM6jW1QelvKf-14" target="q6XcGo8AvM6jW1QelvKf-15" edge="1"><mxGeometry relative="1" as="geometry"/></mxCell><mxCell id="q6XcGo8AvM6jW1QelvKf-14" value="&lt;font size=&quot;3&quot;&gt;CUST_EMAIL&lt;/font&gt;" style="rounded=0;whiteSpace=wrap;html=1;fontSize=36;fillColor=#dae8fc;strokeColor=#6c8ebf;" parent="1" vertex="1"><mxGeometry x="2980" y="160" width="140" height="40" as="geometry"/></mxCell><mxCell id="q6XcGo8AvM6jW1QelvKf-134" style="edgeStyle=orthogonalEdgeStyle;rounded=0;sketch=0;orthogonalLoop=1;jettySize=auto;html=1;exitX=0.5;exitY=0;exitDx=0;exitDy=0;entryX=0.5;entryY=0;entryDx=0;entryDy=0;fontSize=16;startArrow=none;startFill=0;endArrow=classic;endFill=1;" parent="1" source="q6XcGo8AvM6jW1QelvKf-15" target="q6XcGo8AvM6jW1QelvKf-126" edge="1"><mxGeometry relative="1" as="geometry"/></mxCell><mxCell id="q6XcGo8AvM6jW1QelvKf-15" value="&lt;font size=&quot;3&quot;&gt;CUST_ADDRESS&lt;/font&gt;" style="rounded=0;whiteSpace=wrap;html=1;fontSize=36;fillColor=#dae8fc;strokeColor=#6c8ebf;" parent="1" vertex="1"><mxGeometry x="3120" y="160" width="140" height="40" as="geometry"/></mxCell><mxCell id="q6XcGo8AvM6jW1QelvKf-40" style="edgeStyle=orthogonalEdgeStyle;rounded=0;sketch=0;orthogonalLoop=1;jettySize=auto;html=1;exitX=0.5;exitY=0;exitDx=0;exitDy=0;entryX=0.5;entryY=0;entryDx=0;entryDy=0;fontSize=16;startArrow=classic;startFill=1;endArrow=classic;endFill=1;" parent="1" source="q6XcGo8AvM6jW1QelvKf-39" target="CqQhMdr8A4lf7jFSZ2HG-9" edge="1"><mxGeometry relative="1" as="geometry"/></mxCell><mxCell id="q6XcGo8AvM6jW1QelvKf-39" value="&lt;font size=&quot;3&quot;&gt;PROJ_NAME&lt;/font&gt;" style="rounded=0;whiteSpace=wrap;html=1;fontSize=36;fillColor=#dae8fc;strokeColor=#6c8ebf;" parent="1" vertex="1"><mxGeometry x="180" y="160" width="140" height="40" as="geometry"/></mxCell><mxCell id="q6XcGo8AvM6jW1QelvKf-64" style="edgeStyle=orthogonalEdgeStyle;rounded=0;sketch=0;orthogonalLoop=1;jettySize=auto;html=1;exitX=0.5;exitY=0;exitDx=0;exitDy=0;entryX=0.5;entryY=0;entryDx=0;entryDy=0;fontSize=16;startArrow=none;startFill=0;endArrow=classic;endFill=1;" parent="1" source="q6XcGo8AvM6jW1QelvKf-61" target="q6XcGo8AvM6jW1QelvKf-62" edge="1"><mxGeometry relative="1" as="geometry"/></mxCell><mxCell id="q6XcGo8AvM6jW1QelvKf-61" value="&lt;font size=&quot;3&quot;&gt;BUILD_TYPE&lt;/font&gt;" style="rounded=0;whiteSpace=wrap;html=1;fontSize=36;fillColor=#dae8fc;strokeColor=#6c8ebf;" parent="1" vertex="1"><mxGeometry x="490" y="400" width="140" height="40" as="geometry"/></mxCell><mxCell id="q6XcGo8AvM6jW1QelvKf-82" style="edgeStyle=orthogonalEdgeStyle;rounded=0;sketch=0;orthogonalLoop=1;jettySize=auto;html=1;exitX=0.5;exitY=0;exitDx=0;exitDy=0;entryX=0.5;entryY=0;entryDx=0;entryDy=0;fontSize=16;startArrow=none;startFill=0;endArrow=classic;endFill=1;" parent="1" source="q6XcGo8AvM6jW1QelvKf-62" target="q6XcGo8AvM6jW1QelvKf-81" edge="1"><mxGeometry relative="1" as="geometry"/></mxCell><mxCell id="q6XcGo8AvM6jW1QelvKf-62" value="&lt;font size=&quot;3&quot;&gt;TOTAL_FEE&lt;/font&gt;" style="rounded=0;whiteSpace=wrap;html=1;fontSize=36;fillColor=#dae8fc;strokeColor=#6c8ebf;" parent="1" vertex="1"><mxGeometry x="630" y="400" width="140" height="40" as="geometry"/></mxCell><mxCell id="q6XcGo8AvM6jW1QelvKf-75" value="&lt;span style=&quot;font-size: 18px&quot;&gt;FEE&lt;/span&gt;" style="rounded=0;whiteSpace=wrap;html=1;fontSize=36;" parent="1" vertex="1"><mxGeometry x="40" y="590" width="140" height="40" as="geometry"/></mxCell><mxCell id="q6XcGo8AvM6jW1QelvKf-76" style="edgeStyle=orthogonalEdgeStyle;rounded=1;orthogonalLoop=1;jettySize=auto;html=1;exitX=0.5;exitY=0;exitDx=0;exitDy=0;entryX=0.5;entryY=0;entryDx=0;entryDy=0;fontSize=18;startArrow=none;startFill=0;endArrow=none;endFill=0;strokeColor=#000000;" parent="1" source="q6XcGo8AvM6jW1QelvKf-77" target="q6XcGo8AvM6jW1QelvKf-79" edge="1"><mxGeometry relative="1" as="geometry"/></mxCell><mxCell id="q6XcGo8AvM6jW1QelvKf-77" value="&lt;font style=&quot;font-size: 18px&quot;&gt;&lt;b&gt;&lt;u style=&quot;font-size: 16px&quot;&gt;TOTAL_FEE&lt;/u&gt;&lt;/b&gt;&lt;/font&gt;" style="rounded=0;whiteSpace=wrap;html=1;fontSize=36;fillColor=#ffe6cc;strokeColor=#d79b00;" parent="1" vertex="1"><mxGeometry x="210" y="590" width="140" height="40" as="geometry"/></mxCell><mxCell id="q6XcGo8AvM6jW1QelvKf-78" style="edgeStyle=orthogonalEdgeStyle;rounded=0;orthogonalLoop=1;jettySize=auto;html=1;entryX=0.5;entryY=0;entryDx=0;entryDy=0;fontSize=18;startArrow=none;startFill=0;endArrow=classic;endFill=1;strokeColor=#000000;" parent="1" target="q6XcGo8AvM6jW1QelvKf-80" edge="1"><mxGeometry relative="1" as="geometry"><mxPoint x="350" y="570" as="sourcePoint"/><Array as="points"><mxPoint x="350" y="540"/><mxPoint x="560" y="540"/></Array></mxGeometry></mxCell><mxCell id="q6XcGo8AvM6jW1QelvKf-79" value="&lt;font size=&quot;3&quot;&gt;&lt;b&gt;&lt;u&gt;TOTAL_PAID&lt;/u&gt;&lt;/b&gt;&lt;/font&gt;" style="rounded=0;whiteSpace=wrap;html=1;fontSize=36;fillColor=#ffe6cc;strokeColor=#d79b00;" parent="1" vertex="1"><mxGeometry x="350" y="590" width="140" height="40" as="geometry"/></mxCell><mxCell id="q6XcGo8AvM6jW1QelvKf-80" value="&lt;font size=&quot;3&quot;&gt;TOTAL_OWED&lt;/font&gt;" style="rounded=0;whiteSpace=wrap;html=1;fontSize=36;fillColor=#dae8fc;strokeColor=#6c8ebf;" parent="1" vertex="1"><mxGeometry x="490" y="590" width="140" height="40" as="geometry"/></mxCell><mxCell id="q6XcGo8AvM6jW1QelvKf-81" value="&lt;font size=&quot;3&quot;&gt;TOTAL_PAID&lt;/font&gt;" style="rounded=0;whiteSpace=wrap;html=1;fontSize=36;fillColor=#dae8fc;strokeColor=#6c8ebf;" parent="1" vertex="1"><mxGeometry x="770" y="400" width="140" height="40" as="geometry"/></mxCell><mxCell id="q6XcGo8AvM6jW1QelvKf-83" value="&lt;span style=&quot;font-size: 18px&quot;&gt;COMPLETE&lt;/span&gt;" style="rounded=0;whiteSpace=wrap;html=1;fontSize=36;" parent="1" vertex="1"><mxGeometry x="40" y="710" width="140" height="40" as="geometry"/></mxCell><mxCell id="q6XcGo8AvM6jW1QelvKf-84" style="edgeStyle=orthogonalEdgeStyle;rounded=1;orthogonalLoop=1;jettySize=auto;html=1;exitX=0.5;exitY=0;exitDx=0;exitDy=0;entryX=0.5;entryY=0;entryDx=0;entryDy=0;fontSize=18;startArrow=none;startFill=0;endArrow=none;endFill=0;strokeColor=#000000;" parent="1" source="q6XcGo8AvM6jW1QelvKf-85" target="q6XcGo8AvM6jW1QelvKf-87" edge="1"><mxGeometry relative="1" as="geometry"/></mxCell><mxCell id="q6XcGo8AvM6jW1QelvKf-85" value="&lt;font style=&quot;font-size: 18px&quot;&gt;&lt;b&gt;&lt;u style=&quot;font-size: 16px&quot;&gt;DEADLINE&lt;/u&gt;&lt;/b&gt;&lt;/font&gt;" style="rounded=0;whiteSpace=wrap;html=1;fontSize=36;fillColor=#ffe6cc;strokeColor=#d79b00;" parent="1" vertex="1"><mxGeometry x="210" y="710" width="140" height="40" as="geometry"/></mxCell><mxCell id="q6XcGo8AvM6jW1QelvKf-86" style="edgeStyle=orthogonalEdgeStyle;rounded=0;orthogonalLoop=1;jettySize=auto;html=1;entryX=0.5;entryY=0;entryDx=0;entryDy=0;fontSize=18;startArrow=none;startFill=0;endArrow=classic;endFill=1;strokeColor=#000000;" parent="1" target="q6XcGo8AvM6jW1QelvKf-88" edge="1"><mxGeometry relative="1" as="geometry"><mxPoint x="350" y="690" as="sourcePoint"/><Array as="points"><mxPoint x="350" y="660"/><mxPoint x="560" y="660"/></Array></mxGeometry></mxCell><mxCell id="q6XcGo8AvM6jW1QelvKf-87" value="&lt;font size=&quot;3&quot;&gt;&lt;b&gt;&lt;u&gt;COMP_DATE&lt;/u&gt;&lt;/b&gt;&lt;/font&gt;" style="rounded=0;whiteSpace=wrap;html=1;fontSize=36;fillColor=#ffe6cc;strokeColor=#d79b00;" parent="1" vertex="1"><mxGeometry x="350" y="710" width="140" height="40" as="geometry"/></mxCell><mxCell id="q6XcGo8AvM6jW1QelvKf-88" value="&lt;font size=&quot;3&quot;&gt;COMPLETE&lt;/font&gt;" style="rounded=0;whiteSpace=wrap;html=1;fontSize=36;fillColor=#dae8fc;strokeColor=#6c8ebf;" parent="1" vertex="1"><mxGeometry x="490" y="710" width="140" height="40" as="geometry"/></mxCell><mxCell id="q6XcGo8AvM6jW1QelvKf-89" value="&lt;font size=&quot;3&quot;&gt;ARCH_NAME&lt;/font&gt;" style="rounded=0;whiteSpace=wrap;html=1;fontSize=36;fillColor=#dae8fc;strokeColor=#6c8ebf;" parent="1" vertex="1"><mxGeometry x="910" y="400" width="140" height="40" as="geometry"/></mxCell><mxCell id="q6XcGo8AvM6jW1QelvKf-90" value="&lt;font size=&quot;3&quot;&gt;CONT_NAME&lt;/font&gt;" style="rounded=0;whiteSpace=wrap;html=1;fontSize=36;fillColor=#dae8fc;strokeColor=#6c8ebf;" parent="1" vertex="1"><mxGeometry x="1050" y="400" width="140" height="40" as="geometry"/></mxCell><mxCell id="q6XcGo8AvM6jW1QelvKf-91" value="&lt;font size=&quot;3&quot;&gt;CUST_NAME&lt;/font&gt;" style="rounded=0;whiteSpace=wrap;html=1;fontSize=36;fillColor=#dae8fc;strokeColor=#6c8ebf;" parent="1" vertex="1"><mxGeometry x="1190" y="400" width="140" height="40" as="geometry"/></mxCell><mxCell id="q6XcGo8AvM6jW1QelvKf-92" value="&lt;span style=&quot;font-size: 18px&quot;&gt;ARCHITECT&lt;/span&gt;" style="rounded=0;whiteSpace=wrap;html=1;fontSize=36;" parent="1" vertex="1"><mxGeometry x="40" y="800" width="140" height="40" as="geometry"/></mxCell><mxCell id="q6XcGo8AvM6jW1QelvKf-93" style="edgeStyle=orthogonalEdgeStyle;rounded=0;orthogonalLoop=1;jettySize=auto;html=1;exitX=0.5;exitY=0;exitDx=0;exitDy=0;entryX=0.5;entryY=0;entryDx=0;entryDy=0;fontSize=18;startArrow=none;startFill=0;endArrow=classic;endFill=1;strokeColor=#000000;" parent="1" source="q6XcGo8AvM6jW1QelvKf-94" target="q6XcGo8AvM6jW1QelvKf-96" edge="1"><mxGeometry relative="1" as="geometry"/></mxCell><mxCell id="q6XcGo8AvM6jW1QelvKf-94" value="&lt;font size=&quot;3&quot;&gt;&lt;b&gt;&lt;u&gt;ARCH_NAME&lt;/u&gt;&lt;/b&gt;&lt;/font&gt;" style="rounded=0;whiteSpace=wrap;html=1;fontSize=36;fillColor=#ffe6cc;strokeColor=#d79b00;" parent="1" vertex="1"><mxGeometry x="210" y="800" width="140" height="40" as="geometry"/></mxCell><mxCell id="q6XcGo8AvM6jW1QelvKf-95" style="edgeStyle=orthogonalEdgeStyle;rounded=0;orthogonalLoop=1;jettySize=auto;html=1;exitX=0.5;exitY=0;exitDx=0;exitDy=0;entryX=0.5;entryY=0;entryDx=0;entryDy=0;fontSize=18;startArrow=classic;startFill=1;endArrow=classic;endFill=1;strokeColor=#000000;" parent="1" source="q6XcGo8AvM6jW1QelvKf-96" target="q6XcGo8AvM6jW1QelvKf-97" edge="1"><mxGeometry relative="1" as="geometry"/></mxCell><mxCell id="q6XcGo8AvM6jW1QelvKf-96" value="&lt;span style=&quot;font-size: medium&quot;&gt;ARCH_TELE&lt;/span&gt;" style="rounded=0;whiteSpace=wrap;html=1;fontSize=36;fillColor=#dae8fc;strokeColor=#6c8ebf;" parent="1" vertex="1"><mxGeometry x="350" y="800" width="140" height="40" as="geometry"/></mxCell><mxCell id="q6XcGo8AvM6jW1QelvKf-99" style="edgeStyle=orthogonalEdgeStyle;rounded=0;sketch=0;orthogonalLoop=1;jettySize=auto;html=1;exitX=0.5;exitY=0;exitDx=0;exitDy=0;entryX=0.5;entryY=0;entryDx=0;entryDy=0;fontSize=16;startArrow=none;startFill=0;endArrow=classic;endFill=1;" parent="1" source="q6XcGo8AvM6jW1QelvKf-97" target="q6XcGo8AvM6jW1QelvKf-98" edge="1"><mxGeometry relative="1" as="geometry"/></mxCell><mxCell id="q6XcGo8AvM6jW1QelvKf-97" value="&lt;span style=&quot;font-size: medium&quot;&gt;ARCH_EMAIL&lt;/span&gt;" style="rounded=0;whiteSpace=wrap;html=1;fontSize=36;fillColor=#dae8fc;strokeColor=#6c8ebf;" parent="1" vertex="1"><mxGeometry x="490" y="800" width="140" height="40" as="geometry"/></mxCell><mxCell id="q6XcGo8AvM6jW1QelvKf-98" value="&lt;span style=&quot;font-size: medium&quot;&gt;ARCH_ADDRESS&lt;/span&gt;" style="rounded=0;whiteSpace=wrap;html=1;fontSize=36;fillColor=#dae8fc;strokeColor=#6c8ebf;" parent="1" vertex="1"><mxGeometry x="630" y="800" width="140" height="40" as="geometry"/></mxCell><mxCell id="q6XcGo8AvM6jW1QelvKf-108" value="&lt;span style=&quot;font-size: 18px&quot;&gt;CONTRACTOR&lt;/span&gt;" style="rounded=0;whiteSpace=wrap;html=1;fontSize=36;" parent="1" vertex="1"><mxGeometry x="40" y="880" width="140" height="40" as="geometry"/></mxCell><mxCell id="q6XcGo8AvM6jW1QelvKf-109" style="edgeStyle=orthogonalEdgeStyle;rounded=0;orthogonalLoop=1;jettySize=auto;html=1;exitX=0.5;exitY=0;exitDx=0;exitDy=0;entryX=0.5;entryY=0;entryDx=0;entryDy=0;fontSize=18;startArrow=none;startFill=0;endArrow=classic;endFill=1;strokeColor=#000000;" parent="1" source="q6XcGo8AvM6jW1QelvKf-110" target="q6XcGo8AvM6jW1QelvKf-112" edge="1"><mxGeometry relative="1" as="geometry"/></mxCell><mxCell id="q6XcGo8AvM6jW1QelvKf-110" value="&lt;font size=&quot;3&quot;&gt;&lt;b&gt;&lt;u&gt;CONT_NAME&lt;/u&gt;&lt;/b&gt;&lt;/font&gt;" style="rounded=0;whiteSpace=wrap;html=1;fontSize=36;fillColor=#ffe6cc;strokeColor=#d79b00;" parent="1" vertex="1"><mxGeometry x="210" y="880" width="140" height="40" as="geometry"/></mxCell><mxCell id="q6XcGo8AvM6jW1QelvKf-111" style="edgeStyle=orthogonalEdgeStyle;rounded=0;orthogonalLoop=1;jettySize=auto;html=1;exitX=0.5;exitY=0;exitDx=0;exitDy=0;entryX=0.5;entryY=0;entryDx=0;entryDy=0;fontSize=18;startArrow=classic;startFill=1;endArrow=classic;endFill=1;strokeColor=#000000;" parent="1" source="q6XcGo8AvM6jW1QelvKf-112" target="q6XcGo8AvM6jW1QelvKf-114" edge="1"><mxGeometry relative="1" as="geometry"/></mxCell><mxCell id="q6XcGo8AvM6jW1QelvKf-112" value="&lt;span style=&quot;font-size: medium&quot;&gt;CONT_TELE&lt;/span&gt;" style="rounded=0;whiteSpace=wrap;html=1;fontSize=36;fillColor=#dae8fc;strokeColor=#6c8ebf;" parent="1" vertex="1"><mxGeometry x="350" y="880" width="140" height="40" as="geometry"/></mxCell><mxCell id="q6XcGo8AvM6jW1QelvKf-113" style="edgeStyle=orthogonalEdgeStyle;rounded=0;sketch=0;orthogonalLoop=1;jettySize=auto;html=1;exitX=0.5;exitY=0;exitDx=0;exitDy=0;entryX=0.5;entryY=0;entryDx=0;entryDy=0;fontSize=16;startArrow=none;startFill=0;endArrow=classic;endFill=1;" parent="1" source="q6XcGo8AvM6jW1QelvKf-114" target="q6XcGo8AvM6jW1QelvKf-115" edge="1"><mxGeometry relative="1" as="geometry"/></mxCell><mxCell id="q6XcGo8AvM6jW1QelvKf-114" value="&lt;span style=&quot;font-size: medium&quot;&gt;CONT_EMAIL&lt;/span&gt;" style="rounded=0;whiteSpace=wrap;html=1;fontSize=36;fillColor=#dae8fc;strokeColor=#6c8ebf;" parent="1" vertex="1"><mxGeometry x="490" y="880" width="140" height="40" as="geometry"/></mxCell><mxCell id="q6XcGo8AvM6jW1QelvKf-115" value="&lt;span style=&quot;font-size: medium&quot;&gt;CONT_ADDRESS&lt;/span&gt;" style="rounded=0;whiteSpace=wrap;html=1;fontSize=36;fillColor=#dae8fc;strokeColor=#6c8ebf;" parent="1" vertex="1"><mxGeometry x="630" y="880" width="140" height="40" as="geometry"/></mxCell><mxCell id="q6XcGo8AvM6jW1QelvKf-116" value="&lt;span style=&quot;font-size: 18px&quot;&gt;CUSTOMER&lt;/span&gt;" style="rounded=0;whiteSpace=wrap;html=1;fontSize=36;" parent="1" vertex="1"><mxGeometry x="40" y="960" width="140" height="40" as="geometry"/></mxCell><mxCell id="q6XcGo8AvM6jW1QelvKf-117" style="edgeStyle=orthogonalEdgeStyle;rounded=0;orthogonalLoop=1;jettySize=auto;html=1;exitX=0.5;exitY=0;exitDx=0;exitDy=0;entryX=0.5;entryY=0;entryDx=0;entryDy=0;fontSize=18;startArrow=none;startFill=0;endArrow=classic;endFill=1;strokeColor=#000000;" parent="1" source="q6XcGo8AvM6jW1QelvKf-118" target="q6XcGo8AvM6jW1QelvKf-120" edge="1"><mxGeometry relative="1" as="geometry"/></mxCell><mxCell id="q6XcGo8AvM6jW1QelvKf-118" value="&lt;font size=&quot;3&quot;&gt;&lt;b&gt;&lt;u&gt;CUST_NAME&lt;/u&gt;&lt;/b&gt;&lt;/font&gt;" style="rounded=0;whiteSpace=wrap;html=1;fontSize=36;fillColor=#ffe6cc;strokeColor=#d79b00;" parent="1" vertex="1"><mxGeometry x="210" y="960" width="140" height="40" as="geometry"/></mxCell><mxCell id="q6XcGo8AvM6jW1QelvKf-119" style="edgeStyle=orthogonalEdgeStyle;rounded=0;orthogonalLoop=1;jettySize=auto;html=1;exitX=0.5;exitY=0;exitDx=0;exitDy=0;entryX=0.5;entryY=0;entryDx=0;entryDy=0;fontSize=18;startArrow=classic;startFill=1;endArrow=classic;endFill=1;strokeColor=#000000;" parent="1" source="q6XcGo8AvM6jW1QelvKf-120" target="q6XcGo8AvM6jW1QelvKf-122" edge="1"><mxGeometry relative="1" as="geometry"/></mxCell><mxCell id="q6XcGo8AvM6jW1QelvKf-120" value="&lt;span style=&quot;font-size: medium&quot;&gt;CUST_TELE&lt;/span&gt;" style="rounded=0;whiteSpace=wrap;html=1;fontSize=36;fillColor=#dae8fc;strokeColor=#6c8ebf;" parent="1" vertex="1"><mxGeometry x="350" y="960" width="140" height="40" as="geometry"/></mxCell><mxCell id="q6XcGo8AvM6jW1QelvKf-121" style="edgeStyle=orthogonalEdgeStyle;rounded=0;sketch=0;orthogonalLoop=1;jettySize=auto;html=1;exitX=0.5;exitY=0;exitDx=0;exitDy=0;entryX=0.5;entryY=0;entryDx=0;entryDy=0;fontSize=16;startArrow=none;startFill=0;endArrow=classic;endFill=1;" parent="1" source="q6XcGo8AvM6jW1QelvKf-122" target="q6XcGo8AvM6jW1QelvKf-123" edge="1"><mxGeometry relative="1" as="geometry"/></mxCell><mxCell id="q6XcGo8AvM6jW1QelvKf-122" value="&lt;span style=&quot;font-size: medium&quot;&gt;CUST_EMAIL&lt;/span&gt;" style="rounded=0;whiteSpace=wrap;html=1;fontSize=36;fillColor=#dae8fc;strokeColor=#6c8ebf;" parent="1" vertex="1"><mxGeometry x="490" y="960" width="140" height="40" as="geometry"/></mxCell><mxCell id="q6XcGo8AvM6jW1QelvKf-123" value="&lt;span style=&quot;font-size: medium&quot;&gt;CUST_ADDRESS&lt;/span&gt;" style="rounded=0;whiteSpace=wrap;html=1;fontSize=36;fillColor=#dae8fc;strokeColor=#6c8ebf;" parent="1" vertex="1"><mxGeometry x="630" y="960" width="140" height="40" as="geometry"/></mxCell><mxCell id="q6XcGo8AvM6jW1QelvKf-124" style="edgeStyle=orthogonalEdgeStyle;rounded=0;sketch=0;orthogonalLoop=1;jettySize=auto;html=1;exitX=0.5;exitY=0;exitDx=0;exitDy=0;entryX=0.5;entryY=0;entryDx=0;entryDy=0;fontSize=16;startArrow=classic;startFill=1;endArrow=classic;endFill=1;" parent="1" source="q6XcGo8AvM6jW1QelvKf-126" target="q6XcGo8AvM6jW1QelvKf-129" edge="1"><mxGeometry relative="1" as="geometry"/></mxCell><mxCell id="q6XcGo8AvM6jW1QelvKf-125" style="edgeStyle=orthogonalEdgeStyle;rounded=0;sketch=0;orthogonalLoop=1;jettySize=auto;html=1;exitX=0.5;exitY=1;exitDx=0;exitDy=0;entryX=0.5;entryY=1;entryDx=0;entryDy=0;fontSize=16;startArrow=classic;startFill=1;endArrow=classic;endFill=1;" parent="1" source="q6XcGo8AvM6jW1QelvKf-126" target="q6XcGo8AvM6jW1QelvKf-129" edge="1"><mxGeometry relative="1" as="geometry"/></mxCell><mxCell id="q6XcGo8AvM6jW1QelvKf-126" value="&lt;font size=&quot;3&quot;&gt;ENGI_NAME&lt;/font&gt;" style="rounded=0;whiteSpace=wrap;html=1;fontSize=36;fillColor=#dae8fc;strokeColor=#6c8ebf;" parent="1" vertex="1"><mxGeometry x="3260" y="160" width="140" height="40" as="geometry"/></mxCell><mxCell id="q6XcGo8AvM6jW1QelvKf-127" style="edgeStyle=orthogonalEdgeStyle;rounded=0;sketch=0;orthogonalLoop=1;jettySize=auto;html=1;exitX=0.5;exitY=0;exitDx=0;exitDy=0;entryX=0.5;entryY=0;entryDx=0;entryDy=0;fontSize=16;startArrow=classic;startFill=1;endArrow=classic;endFill=1;" parent="1" source="q6XcGo8AvM6jW1QelvKf-129" target="q6XcGo8AvM6jW1QelvKf-132" edge="1"><mxGeometry relative="1" as="geometry"/></mxCell><mxCell id="q6XcGo8AvM6jW1QelvKf-128" style="edgeStyle=orthogonalEdgeStyle;rounded=0;sketch=0;orthogonalLoop=1;jettySize=auto;html=1;exitX=0.5;exitY=1;exitDx=0;exitDy=0;entryX=0.5;entryY=1;entryDx=0;entryDy=0;fontSize=16;startArrow=classic;startFill=1;endArrow=classic;endFill=1;" parent="1" source="q6XcGo8AvM6jW1QelvKf-129" target="q6XcGo8AvM6jW1QelvKf-132" edge="1"><mxGeometry relative="1" as="geometry"/></mxCell><mxCell id="q6XcGo8AvM6jW1QelvKf-129" value="&lt;span style=&quot;font-size: medium&quot;&gt;ENGI&lt;/span&gt;&lt;font size=&quot;3&quot;&gt;_TELE&lt;/font&gt;" style="rounded=0;whiteSpace=wrap;html=1;fontSize=36;fillColor=#dae8fc;strokeColor=#6c8ebf;" parent="1" vertex="1"><mxGeometry x="3400" y="160" width="140" height="40" as="geometry"/></mxCell><mxCell id="q6XcGo8AvM6jW1QelvKf-130" style="edgeStyle=orthogonalEdgeStyle;rounded=0;sketch=0;orthogonalLoop=1;jettySize=auto;html=1;exitX=0.5;exitY=0;exitDx=0;exitDy=0;entryX=0.5;entryY=0;entryDx=0;entryDy=0;fontSize=16;startArrow=classic;startFill=1;endArrow=classic;endFill=1;" parent="1" source="q6XcGo8AvM6jW1QelvKf-132" target="q6XcGo8AvM6jW1QelvKf-133" edge="1"><mxGeometry relative="1" as="geometry"/></mxCell><mxCell id="q6XcGo8AvM6jW1QelvKf-131" style="edgeStyle=orthogonalEdgeStyle;rounded=0;sketch=0;orthogonalLoop=1;jettySize=auto;html=1;exitX=0.5;exitY=1;exitDx=0;exitDy=0;entryX=0.5;entryY=1;entryDx=0;entryDy=0;fontSize=16;startArrow=classic;startFill=1;endArrow=classic;endFill=1;" parent="1" source="q6XcGo8AvM6jW1QelvKf-132" target="q6XcGo8AvM6jW1QelvKf-133" edge="1"><mxGeometry relative="1" as="geometry"/></mxCell><mxCell id="q6XcGo8AvM6jW1QelvKf-132" value="&lt;span style=&quot;font-size: medium&quot;&gt;ENGI&lt;/span&gt;&lt;font size=&quot;3&quot;&gt;_EMAIL&lt;/font&gt;" style="rounded=0;whiteSpace=wrap;html=1;fontSize=36;fillColor=#dae8fc;strokeColor=#6c8ebf;" parent="1" vertex="1"><mxGeometry x="3540" y="160" width="140" height="40" as="geometry"/></mxCell><mxCell id="q6XcGo8AvM6jW1QelvKf-171" style="edgeStyle=orthogonalEdgeStyle;rounded=0;sketch=0;orthogonalLoop=1;jettySize=auto;html=1;exitX=0.5;exitY=0;exitDx=0;exitDy=0;entryX=0.5;entryY=0;entryDx=0;entryDy=0;fontSize=16;startArrow=none;startFill=0;endArrow=classic;endFill=1;" parent="1" source="q6XcGo8AvM6jW1QelvKf-133" target="q6XcGo8AvM6jW1QelvKf-163" edge="1"><mxGeometry relative="1" as="geometry"/></mxCell><mxCell id="q6XcGo8AvM6jW1QelvKf-133" value="&lt;span style=&quot;font-size: medium&quot;&gt;ENGI&lt;/span&gt;&lt;font size=&quot;3&quot;&gt;_ADDRESS&lt;/font&gt;" style="rounded=0;whiteSpace=wrap;html=1;fontSize=36;fillColor=#dae8fc;strokeColor=#6c8ebf;" parent="1" vertex="1"><mxGeometry x="3680" y="160" width="140" height="40" as="geometry"/></mxCell><mxCell id="q6XcGo8AvM6jW1QelvKf-135" value="&lt;span style=&quot;font-size: 18px&quot;&gt;ENGINEER&lt;/span&gt;" style="rounded=0;whiteSpace=wrap;html=1;fontSize=36;" parent="1" vertex="1"><mxGeometry x="40" y="1040" width="140" height="40" as="geometry"/></mxCell><mxCell id="q6XcGo8AvM6jW1QelvKf-136" style="edgeStyle=orthogonalEdgeStyle;rounded=0;orthogonalLoop=1;jettySize=auto;html=1;exitX=0.5;exitY=0;exitDx=0;exitDy=0;entryX=0.5;entryY=0;entryDx=0;entryDy=0;fontSize=18;startArrow=none;startFill=0;endArrow=classic;endFill=1;strokeColor=#000000;" parent="1" source="q6XcGo8AvM6jW1QelvKf-137" target="q6XcGo8AvM6jW1QelvKf-139" edge="1"><mxGeometry relative="1" as="geometry"/></mxCell><mxCell id="q6XcGo8AvM6jW1QelvKf-137" value="&lt;font size=&quot;3&quot;&gt;&lt;b&gt;&lt;u&gt;ENGI_NAME&lt;/u&gt;&lt;/b&gt;&lt;/font&gt;" style="rounded=0;whiteSpace=wrap;html=1;fontSize=36;fillColor=#ffe6cc;strokeColor=#d79b00;" parent="1" vertex="1"><mxGeometry x="210" y="1040" width="140" height="40" as="geometry"/></mxCell><mxCell id="q6XcGo8AvM6jW1QelvKf-138" style="edgeStyle=orthogonalEdgeStyle;rounded=0;orthogonalLoop=1;jettySize=auto;html=1;exitX=0.5;exitY=0;exitDx=0;exitDy=0;entryX=0.5;entryY=0;entryDx=0;entryDy=0;fontSize=18;startArrow=classic;startFill=1;endArrow=classic;endFill=1;strokeColor=#000000;" parent="1" source="q6XcGo8AvM6jW1QelvKf-139" target="q6XcGo8AvM6jW1QelvKf-141" edge="1"><mxGeometry relative="1" as="geometry"/></mxCell><mxCell id="q6XcGo8AvM6jW1QelvKf-139" value="&lt;span style=&quot;font-size: medium&quot;&gt;ENGI_TELE&lt;/span&gt;" style="rounded=0;whiteSpace=wrap;html=1;fontSize=36;fillColor=#dae8fc;strokeColor=#6c8ebf;" parent="1" vertex="1"><mxGeometry x="350" y="1040" width="140" height="40" as="geometry"/></mxCell><mxCell id="q6XcGo8AvM6jW1QelvKf-140" style="edgeStyle=orthogonalEdgeStyle;rounded=0;sketch=0;orthogonalLoop=1;jettySize=auto;html=1;exitX=0.5;exitY=0;exitDx=0;exitDy=0;entryX=0.5;entryY=0;entryDx=0;entryDy=0;fontSize=16;startArrow=none;startFill=0;endArrow=classic;endFill=1;" parent="1" source="q6XcGo8AvM6jW1QelvKf-141" target="q6XcGo8AvM6jW1QelvKf-142" edge="1"><mxGeometry relative="1" as="geometry"/></mxCell><mxCell id="q6XcGo8AvM6jW1QelvKf-141" value="&lt;span style=&quot;font-size: medium&quot;&gt;ENGI_EMAIL&lt;/span&gt;" style="rounded=0;whiteSpace=wrap;html=1;fontSize=36;fillColor=#dae8fc;strokeColor=#6c8ebf;" parent="1" vertex="1"><mxGeometry x="490" y="1040" width="140" height="40" as="geometry"/></mxCell><mxCell id="q6XcGo8AvM6jW1QelvKf-142" value="&lt;span style=&quot;font-size: medium&quot;&gt;ENGI_ADDRESS&lt;/span&gt;" style="rounded=0;whiteSpace=wrap;html=1;fontSize=36;fillColor=#dae8fc;strokeColor=#6c8ebf;" parent="1" vertex="1"><mxGeometry x="630" y="1040" width="140" height="40" as="geometry"/></mxCell><mxCell id="q6XcGo8AvM6jW1QelvKf-143" value="&lt;span style=&quot;font-size: 18px&quot;&gt;PROJ_MANA&lt;/span&gt;" style="rounded=0;whiteSpace=wrap;html=1;fontSize=36;" parent="1" vertex="1"><mxGeometry x="40" y="1120" width="140" height="40" as="geometry"/></mxCell><mxCell id="q6XcGo8AvM6jW1QelvKf-144" style="edgeStyle=orthogonalEdgeStyle;rounded=0;orthogonalLoop=1;jettySize=auto;html=1;exitX=0.5;exitY=0;exitDx=0;exitDy=0;entryX=0.5;entryY=0;entryDx=0;entryDy=0;fontSize=18;startArrow=none;startFill=0;endArrow=classic;endFill=1;strokeColor=#000000;" parent="1" source="q6XcGo8AvM6jW1QelvKf-145" target="q6XcGo8AvM6jW1QelvKf-147" edge="1"><mxGeometry relative="1" as="geometry"/></mxCell><mxCell id="q6XcGo8AvM6jW1QelvKf-145" value="&lt;font size=&quot;3&quot;&gt;&lt;b&gt;&lt;u&gt;PM_NAME&lt;/u&gt;&lt;/b&gt;&lt;/font&gt;" style="rounded=0;whiteSpace=wrap;html=1;fontSize=36;fillColor=#ffe6cc;strokeColor=#d79b00;" parent="1" vertex="1"><mxGeometry x="210" y="1120" width="140" height="40" as="geometry"/></mxCell><mxCell id="q6XcGo8AvM6jW1QelvKf-146" style="edgeStyle=orthogonalEdgeStyle;rounded=0;orthogonalLoop=1;jettySize=auto;html=1;exitX=0.5;exitY=0;exitDx=0;exitDy=0;entryX=0.5;entryY=0;entryDx=0;entryDy=0;fontSize=18;startArrow=classic;startFill=1;endArrow=classic;endFill=1;strokeColor=#000000;" parent="1" source="q6XcGo8AvM6jW1QelvKf-147" target="q6XcGo8AvM6jW1QelvKf-149" edge="1"><mxGeometry relative="1" as="geometry"/></mxCell><mxCell id="q6XcGo8AvM6jW1QelvKf-147" value="&lt;span style=&quot;font-size: medium&quot;&gt;PM_TELE&lt;/span&gt;" style="rounded=0;whiteSpace=wrap;html=1;fontSize=36;fillColor=#dae8fc;strokeColor=#6c8ebf;" parent="1" vertex="1"><mxGeometry x="350" y="1120" width="140" height="40" as="geometry"/></mxCell><mxCell id="q6XcGo8AvM6jW1QelvKf-148" style="edgeStyle=orthogonalEdgeStyle;rounded=0;sketch=0;orthogonalLoop=1;jettySize=auto;html=1;exitX=0.5;exitY=0;exitDx=0;exitDy=0;entryX=0.5;entryY=0;entryDx=0;entryDy=0;fontSize=16;startArrow=none;startFill=0;endArrow=classic;endFill=1;" parent="1" source="q6XcGo8AvM6jW1QelvKf-149" target="q6XcGo8AvM6jW1QelvKf-150" edge="1"><mxGeometry relative="1" as="geometry"/></mxCell><mxCell id="q6XcGo8AvM6jW1QelvKf-149" value="&lt;span style=&quot;font-size: medium&quot;&gt;PM_EMAIL&lt;/span&gt;" style="rounded=0;whiteSpace=wrap;html=1;fontSize=36;fillColor=#dae8fc;strokeColor=#6c8ebf;" parent="1" vertex="1"><mxGeometry x="490" y="1120" width="140" height="40" as="geometry"/></mxCell><mxCell id="q6XcGo8AvM6jW1QelvKf-150" value="&lt;span style=&quot;font-size: medium&quot;&gt;PM_ADDRESS&lt;/span&gt;" style="rounded=0;whiteSpace=wrap;html=1;fontSize=36;fillColor=#dae8fc;strokeColor=#6c8ebf;" parent="1" vertex="1"><mxGeometry x="630" y="1120" width="140" height="40" as="geometry"/></mxCell><mxCell id="q6XcGo8AvM6jW1QelvKf-161" style="edgeStyle=orthogonalEdgeStyle;rounded=0;sketch=0;orthogonalLoop=1;jettySize=auto;html=1;exitX=0.5;exitY=0;exitDx=0;exitDy=0;entryX=0.5;entryY=0;entryDx=0;entryDy=0;fontSize=16;startArrow=classic;startFill=1;endArrow=classic;endFill=1;" parent="1" source="q6XcGo8AvM6jW1QelvKf-163" target="q6XcGo8AvM6jW1QelvKf-166" edge="1"><mxGeometry relative="1" as="geometry"/></mxCell><mxCell id="q6XcGo8AvM6jW1QelvKf-162" style="edgeStyle=orthogonalEdgeStyle;rounded=0;sketch=0;orthogonalLoop=1;jettySize=auto;html=1;exitX=0.5;exitY=1;exitDx=0;exitDy=0;entryX=0.5;entryY=1;entryDx=0;entryDy=0;fontSize=16;startArrow=classic;startFill=1;endArrow=classic;endFill=1;" parent="1" source="q6XcGo8AvM6jW1QelvKf-163" target="q6XcGo8AvM6jW1QelvKf-166" edge="1"><mxGeometry relative="1" as="geometry"/></mxCell><mxCell id="q6XcGo8AvM6jW1QelvKf-163" value="&lt;font size=&quot;3&quot;&gt;PM_NAME&lt;/font&gt;" style="rounded=0;whiteSpace=wrap;html=1;fontSize=36;fillColor=#dae8fc;strokeColor=#6c8ebf;" parent="1" vertex="1"><mxGeometry x="3820" y="160" width="140" height="40" as="geometry"/></mxCell><mxCell id="q6XcGo8AvM6jW1QelvKf-164" style="edgeStyle=orthogonalEdgeStyle;rounded=0;sketch=0;orthogonalLoop=1;jettySize=auto;html=1;exitX=0.5;exitY=0;exitDx=0;exitDy=0;entryX=0.5;entryY=0;entryDx=0;entryDy=0;fontSize=16;startArrow=classic;startFill=1;endArrow=classic;endFill=1;" parent="1" source="q6XcGo8AvM6jW1QelvKf-166" target="q6XcGo8AvM6jW1QelvKf-169" edge="1"><mxGeometry relative="1" as="geometry"/></mxCell><mxCell id="q6XcGo8AvM6jW1QelvKf-165" style="edgeStyle=orthogonalEdgeStyle;rounded=0;sketch=0;orthogonalLoop=1;jettySize=auto;html=1;exitX=0.5;exitY=1;exitDx=0;exitDy=0;entryX=0.5;entryY=1;entryDx=0;entryDy=0;fontSize=16;startArrow=classic;startFill=1;endArrow=classic;endFill=1;" parent="1" source="q6XcGo8AvM6jW1QelvKf-166" target="q6XcGo8AvM6jW1QelvKf-169" edge="1"><mxGeometry relative="1" as="geometry"/></mxCell><mxCell id="q6XcGo8AvM6jW1QelvKf-166" value="&lt;span style=&quot;font-size: medium&quot;&gt;PM&lt;/span&gt;&lt;font size=&quot;3&quot;&gt;_TELE&lt;/font&gt;" style="rounded=0;whiteSpace=wrap;html=1;fontSize=36;fillColor=#dae8fc;strokeColor=#6c8ebf;" parent="1" vertex="1"><mxGeometry x="3960" y="160" width="140" height="40" as="geometry"/></mxCell><mxCell id="q6XcGo8AvM6jW1QelvKf-167" style="edgeStyle=orthogonalEdgeStyle;rounded=0;sketch=0;orthogonalLoop=1;jettySize=auto;html=1;exitX=0.5;exitY=0;exitDx=0;exitDy=0;entryX=0.5;entryY=0;entryDx=0;entryDy=0;fontSize=16;startArrow=classic;startFill=1;endArrow=classic;endFill=1;" parent="1" source="q6XcGo8AvM6jW1QelvKf-169" target="q6XcGo8AvM6jW1QelvKf-170" edge="1"><mxGeometry relative="1" as="geometry"/></mxCell><mxCell id="q6XcGo8AvM6jW1QelvKf-168" style="edgeStyle=orthogonalEdgeStyle;rounded=0;sketch=0;orthogonalLoop=1;jettySize=auto;html=1;exitX=0.5;exitY=1;exitDx=0;exitDy=0;entryX=0.5;entryY=1;entryDx=0;entryDy=0;fontSize=16;startArrow=classic;startFill=1;endArrow=classic;endFill=1;" parent="1" source="q6XcGo8AvM6jW1QelvKf-169" target="q6XcGo8AvM6jW1QelvKf-170" edge="1"><mxGeometry relative="1" as="geometry"/></mxCell><mxCell id="q6XcGo8AvM6jW1QelvKf-169" value="&lt;span style=&quot;font-size: medium&quot;&gt;PM&lt;/span&gt;&lt;font size=&quot;3&quot;&gt;_EMAIL&lt;/font&gt;" style="rounded=0;whiteSpace=wrap;html=1;fontSize=36;fillColor=#dae8fc;strokeColor=#6c8ebf;" parent="1" vertex="1"><mxGeometry x="4100" y="160" width="140" height="40" as="geometry"/></mxCell><mxCell id="q6XcGo8AvM6jW1QelvKf-170" value="&lt;span style=&quot;font-size: medium&quot;&gt;PM&lt;/span&gt;&lt;font size=&quot;3&quot;&gt;_ADDRESS&lt;/font&gt;" style="rounded=0;whiteSpace=wrap;html=1;fontSize=36;fillColor=#dae8fc;strokeColor=#6c8ebf;" parent="1" vertex="1"><mxGeometry x="4240" y="160" width="140" height="40" as="geometry"/></mxCell></root></mxGraphModel></diagram></mxfile>